<svg width="500" height="500" viewBox="0 0 500 500" fill="none" xmlns="http://www.w3.org/2000/svg">
<path d="M260.076 83.8018C275.938 80.7858 292.001 78.2998 308.145 78.5758C324.289 78.8518 340.617 82.0028 354.812 89.6988C371.139 98.5508 384.199 112.82 395.443 127.602C413.245 151.004 422.098 181.045 419.833 210.361C417.301 243.126 401.442 273.726 380.603 299.136C359.763 324.546 333.99 348.42 308.125 368.693C292.895 380.63 272.269 385.386 253.35 381.321C234.431 377.257 213.182 365.825 209.687 346.792C206.085 327.172 193.697 309.337 176.57 299.111C163.312 291.196 145.838 288.218 131.819 281.746C106.064 269.855 89.6633 242.267 86.6713 214.057C83.6793 185.847 92.6563 157.373 106.98 132.887C121.652 107.804 143.669 87.2748 171.449 78.7468C199.227 70.2208 234.025 70.9258 260.076 83.8018Z" fill="#CCE1FF" fill-opacity="0.85"/>
<path d="M382.069 146.206L376.337 156.134H387.8L382.069 146.206Z" stroke="#060305" stroke-miterlimit="10" stroke-linecap="round" stroke-linejoin="round"/>
<path d="M95.991 240.645L86.064 234.913V246.377L95.991 240.645Z" fill="#060305"/>
<path d="M406.779 322.276L412.511 312.348H401.048L406.779 322.276Z" fill="#007BE6"/>
<path d="M397.717 179.941C397.717 179.062 397.005 178.349 396.126 178.349C395.247 178.349 394.535 179.061 394.535 179.941C394.535 180.82 395.247 181.532 396.126 181.532C397.004 181.533 397.717 180.82 397.717 179.941Z" fill="#060305"/>
<path d="M378.165 324.566C378.165 323.687 377.452 322.975 376.573 322.975C375.694 322.975 374.982 323.687 374.982 324.566C374.982 325.445 375.695 326.157 376.573 326.157C377.452 326.158 378.165 325.445 378.165 324.566Z" stroke="#060305" stroke-miterlimit="10" stroke-linecap="round" stroke-linejoin="round"/>
<path d="M200.889 256.442C200.889 255.563 200.177 254.851 199.298 254.851C198.419 254.851 197.707 255.564 197.707 256.442C197.707 257.321 198.419 258.033 199.298 258.033C200.177 258.034 200.889 257.321 200.889 256.442Z" fill="#007BE6"/>
<path d="M142.974 307.29C142.974 306.411 142.261 305.699 141.382 305.699C140.503 305.699 139.791 306.411 139.791 307.29C139.791 308.169 140.503 308.881 141.382 308.881C142.261 308.881 142.974 308.169 142.974 307.29Z" fill="#007BE6"/>
<path d="M361.245 351.044C361.245 350.165 360.533 349.453 359.654 349.453C358.775 349.453 358.062 350.165 358.062 351.044C358.062 351.923 358.775 352.635 359.654 352.635C360.533 352.636 361.245 351.923 361.245 351.044Z" fill="#007BE6"/>
<path d="M422.673 151.672C422.673 150.793 421.96 150.081 421.081 150.081C420.202 150.081 419.49 150.793 419.49 151.672C419.49 152.551 420.202 153.263 421.081 153.263C421.96 153.263 422.673 152.551 422.673 151.672Z" fill="#007BE6"/>
<path d="M362.837 271.937C362.837 271.058 362.125 270.346 361.246 270.346C360.367 270.346 359.655 271.059 359.655 271.937C359.655 272.815 360.367 273.528 361.246 273.528C362.124 273.529 362.837 272.816 362.837 271.937Z" fill="#060305"/>
<path d="M183.845 205.61C183.845 204.731 183.132 204.019 182.253 204.019C181.374 204.019 180.662 204.732 180.662 205.61C180.662 206.489 181.375 207.202 182.253 207.202C183.132 207.201 183.845 206.489 183.845 205.61Z" stroke="#060305" stroke-miterlimit="10" stroke-linecap="round" stroke-linejoin="round"/>
<path d="M54.3661 189.904C54.3661 189.025 53.6531 188.313 52.7751 188.313C51.8961 188.313 51.1841 189.025 51.1841 189.904C51.1841 190.783 51.8961 191.495 52.7751 191.495C53.6531 191.496 54.3661 190.783 54.3661 189.904Z" stroke="#060305" stroke-miterlimit="10" stroke-linecap="round" stroke-linejoin="round"/>
<path d="M186.499 268.137C186.499 267.258 185.786 266.546 184.908 266.546C184.029 266.546 183.316 267.259 183.316 268.137C183.316 269.016 184.029 269.729 184.908 269.729C185.786 269.728 186.499 269.016 186.499 268.137Z" fill="#060305"/>
<path d="M155.446 317.312C155.446 316.433 154.734 315.721 153.854 315.721C152.975 315.721 152.263 316.433 152.263 317.312C152.263 318.191 152.976 318.903 153.854 318.903C154.733 318.904 155.446 318.191 155.446 317.312Z" fill="#007BE6"/>
<path d="M300.646 27.5879H86.3911V168.196H300.646V27.5879Z" fill="white"/>
<path d="M300.646 27.5879H86.3911V47.3619H300.646V27.5879Z" fill="#5FB4FF"/>
<path d="M97.2942 40.4239C98.9229 40.4239 100.243 39.1036 100.243 37.4749C100.243 35.8462 98.9229 34.5259 97.2942 34.5259C95.6655 34.5259 94.3452 35.8462 94.3452 37.4749C94.3452 39.1036 95.6655 40.4239 97.2942 40.4239Z" fill="#007BE6"/>
<path d="M109.749 40.4239C111.378 40.4239 112.698 39.1036 112.698 37.4749C112.698 35.8462 111.378 34.5259 109.749 34.5259C108.121 34.5259 106.8 35.8462 106.8 37.4749C106.8 39.1036 108.121 40.4239 109.749 40.4239Z" fill="#007BE6"/>
<path d="M125.153 37.4749C125.153 35.8459 123.833 34.5259 122.204 34.5259C120.575 34.5259 119.255 35.8459 119.255 37.4749C119.255 39.1039 120.575 40.4239 122.204 40.4239C123.832 40.4239 125.153 39.1039 125.153 37.4749Z" fill="#007BE6"/>
<path d="M295.107 34.9138H131.792" stroke="#060305" stroke-miterlimit="10" stroke-linecap="round" stroke-linejoin="round"/>
<path d="M295.107 40.0349H131.792" stroke="#060305" stroke-miterlimit="10" stroke-linecap="round" stroke-linejoin="round"/>
<path d="M149.842 209.807L119.727 226.57L89.612 209.807C74.355 201.314 64.895 185.222 64.895 167.761V96.4098L119.727 75.7258L174.559 96.4098V167.76C174.559 185.223 165.099 201.314 149.842 209.807Z" fill="#5FB4FF"/>
<path d="M144.815 200.017L119.726 213.982L94.6369 200.017C81.9259 192.941 74.0449 179.536 74.0449 164.988V103.424L119.726 86.1919L165.407 103.424V164.988C165.407 179.536 157.527 192.942 144.815 200.017Z" fill="#007BE6"/>
<path d="M149.824 205.176C162.41 199.207 171.001 185.636 171.011 171.706" stroke="#060305" stroke-miterlimit="10" stroke-linecap="round" stroke-linejoin="round"/>
<path d="M69.4321 98.3137C83.3321 92.8307 97.2331 87.3487 111.133 81.8657" stroke="white" stroke-miterlimit="10" stroke-linecap="round" stroke-linejoin="round"/>
<path d="M119.726 75.7258V226.57" stroke="#060305" stroke-miterlimit="10" stroke-linecap="round" stroke-linejoin="round"/>
<path d="M128.355 189.701C148.23 184.934 160.478 164.958 155.712 145.083C150.945 125.207 130.969 112.959 111.094 117.725C91.2181 122.492 78.97 142.468 83.7365 162.344C88.5029 182.219 108.479 194.467 128.355 189.701Z" fill="white"/>
<path d="M118.725 181.329L89.667 146.976L99.768 138.433L117.295 159.159L143.627 118.381L154.74 125.554L118.725 181.329Z" fill="#8EBDFF"/>
<path d="M371.76 68.8528H255.99V94.5998H347.968L352.628 102.67L357.287 94.5998H371.76V68.8528Z" fill="#007BE6"/>
<path d="M271.051 88.2328L264.634 80.6468L266.865 78.7608L270.735 83.3378L276.55 74.3328L279.004 75.9168L271.051 88.2328Z" fill="white"/>
<path d="M364.619 76.6057H286.18" stroke="#060305" stroke-miterlimit="10" stroke-linecap="round" stroke-linejoin="round"/>
<path d="M364.619 81.7256H286.18" stroke="#060305" stroke-miterlimit="10" stroke-linecap="round" stroke-linejoin="round"/>
<path d="M364.619 86.8467H286.18" stroke="#060305" stroke-miterlimit="10" stroke-linecap="round" stroke-linejoin="round"/>
<path d="M316.119 111.821H431.889V137.568H339.911L335.251 145.638L330.592 137.568H316.119V111.821Z" fill="white"/>
<path d="M414.328 131.201L407.912 123.615L410.142 121.729L414.013 126.305L419.828 117.301L422.281 118.885L414.328 131.201Z" fill="#007BE6"/>
<path d="M400.465 119.555H322.025" stroke="#060305" stroke-miterlimit="10" stroke-linecap="round" stroke-linejoin="round"/>
<path d="M400.465 124.676H322.025" stroke="#060305" stroke-miterlimit="10" stroke-linecap="round" stroke-linejoin="round"/>
<path d="M400.465 129.797H322.025" stroke="#060305" stroke-miterlimit="10" stroke-linecap="round" stroke-linejoin="round"/>
<path d="M260.641 478.696C325.101 478.696 377.356 475.356 377.356 471.235C377.356 467.114 325.101 463.774 260.641 463.774C196.181 463.774 143.926 467.114 143.926 471.235C143.926 475.356 196.181 478.696 260.641 478.696Z" fill="#5FB4FF"/>
<path d="M338.807 463.832C332.797 457.572 332.796 447.66 336.536 439.83C319.643 440.226 303.843 441.42 286.95 441.816C287.241 451.057 287.533 460.297 287.824 469.538L346.364 471.236C346.364 467.236 340.942 466.056 338.807 463.832Z" fill="#060305"/>
<path d="M315.33 449.649C319.575 449.53 323.82 449.411 328.066 449.291" stroke="white" stroke-miterlimit="10" stroke-linecap="round" stroke-linejoin="round"/>
<path d="M316.076 453.165C320.653 453.18 325.23 453.194 329.806 453.209" stroke="white" stroke-miterlimit="10" stroke-linecap="round" stroke-linejoin="round"/>
<path d="M317.323 457.198C321.734 457.245 326.144 457.292 330.555 457.339" stroke="white" stroke-miterlimit="10" stroke-linecap="round" stroke-linejoin="round"/>
<path d="M219.197 463.033C214.25 459.906 212.025 453.507 210.803 447.785C209.804 443.111 210.31 437.279 212.627 433.099C196.354 429.041 180.501 425.449 164.227 421.391C162.68 432.154 161.133 442.918 159.586 453.681C168.004 458.91 176.443 464.42 184.861 469.649L226.116 469.797C226.83 465.596 221.966 464.783 219.197 463.033Z" fill="#060305"/>
<path d="M191.006 443.297C195.248 443.21 199.49 443.123 203.732 443.036" stroke="white" stroke-miterlimit="10" stroke-linecap="round" stroke-linejoin="round"/>
<path d="M190.256 447.103C195.167 447.216 200.078 447.33 204.989 447.443" stroke="white" stroke-miterlimit="10" stroke-linecap="round" stroke-linejoin="round"/>
<path d="M191.753 451.137C196.996 451.283 202.239 451.428 207.482 451.574" stroke="white" stroke-miterlimit="10" stroke-linecap="round" stroke-linejoin="round"/>
<path d="M333.472 232.733L232.384 240.439C223.643 269.646 214.902 298.853 206.161 328.06C190.441 353.762 169.95 388.845 160.642 423.336C179.406 429.197 198.129 434.554 216.892 440.415C229.119 414.699 241.838 389.039 254.064 363.324C262.697 345.168 271.311 327.554 279.802 309.332C281.955 324.573 283.088 340.023 285.241 355.264C284.46 386.832 283.562 414.489 282.508 444.32C301.728 444.623 321.565 443.578 340.785 443.881C340.919 412.799 340.926 381.778 341.061 350.696C341.232 311.43 335.907 271.922 333.472 232.733Z" fill="#007BE6"/>
<path d="M279.645 309.924C281.63 304.374 283.615 298.824 285.6 293.274" stroke="#060305" stroke-miterlimit="10" stroke-linecap="round" stroke-linejoin="round"/>
<path d="M236.553 254.402C229.442 278.88 222.331 303.358 215.219 327.836C216.364 327.654 216.441 329.237 216.488 330.395C216.535 331.553 215.805 332.625 214.889 333.334C213.641 334.3 211.997 334.738 210.434 334.521C194.47 359.433 180.656 385.305 170.355 413.042" stroke="#060305" stroke-miterlimit="10" stroke-linecap="round" stroke-linejoin="round"/>
<path d="M164.934 411.94C183.588 418.138 202.242 424.337 220.896 430.535" stroke="#060305" stroke-miterlimit="10" stroke-linecap="round" stroke-linejoin="round"/>
<path d="M284.379 433.043C302.764 432.462 321.149 431.882 339.534 431.301" stroke="#060305" stroke-miterlimit="10" stroke-linecap="round" stroke-linejoin="round"/>
<path d="M283.048 300.871C285.967 317.65 288.887 334.429 291.806 351.208C290.423 353.609 290.121 357.259 292.14 359.156C291.147 383.621 289.946 407.86 288.953 432.325" stroke="#060305" stroke-miterlimit="10" stroke-linecap="round" stroke-linejoin="round"/>
<path d="M365.118 175.118C374.493 181.442 383.353 200.345 379.485 212.487C375.617 224.629 365.881 229.248 357.019 231.37C348.157 233.492 326.937 224.853 326.937 224.853L319.655 198.917L343.327 176.582L365.118 175.118Z" fill="#FFDDDD"/>
<path d="M350.033 185.572C344.824 180.025 341.351 173.183 335.783 167.997C325.475 158.395 311.189 154.512 297.103 154.328C290.154 154.237 283.325 153.912 276.376 153.821C276.134 155.527 274.923 157.038 273.35 157.741C271.777 158.444 269.896 158.358 268.345 157.608C266.794 156.858 265.617 155.416 264.964 153.822C258.85 156.199 252.735 158.575 246.621 160.951C232.589 166.405 220.068 175.996 212.781 189.169C220.829 192.369 228.45 196.141 236.498 199.341C235.031 213.315 233.414 227.382 231.947 241.356L332.382 244.355C331.394 229.387 329.064 214.426 325.136 199.949C333.425 195.098 341.742 190.422 350.033 185.572Z" fill="white"/>
<path d="M256.995 157.697C260.062 163.025 266.397 166.278 272.515 165.667C278.632 165.056 284.198 160.612 286.15 154.782" stroke="#060305" stroke-miterlimit="10" stroke-linecap="round" stroke-linejoin="round"/>
<path d="M242.544 163.627C245.548 161.803 249.654 162.491 252.367 164.725C255.08 166.959 256.52 170.456 256.913 173.948C257.307 177.44 256.757 180.967 256.085 184.416C254.992 190.026 253.568 195.572 251.825 201.016" stroke="#060305" stroke-miterlimit="10" stroke-linecap="round" stroke-linejoin="round"/>
<path d="M305.29 155.328C308.04 164.186 312.326 172.476 316.589 180.712C319.775 186.867 322.961 193.021 326.148 199.176" stroke="#060305" stroke-miterlimit="10" stroke-linecap="round" stroke-linejoin="round"/>
<path d="M270.626 277.579C270.626 277.579 287.056 285.917 299.788 288.351L318.143 280.749L322.317 274.309L284.461 260.475L264.775 268.137L270.626 277.579Z" fill="#FFDDDD"/>
<path d="M301.296 282.638C306.864 280.831 312.433 279.024 318.001 277.216" stroke="#060305" stroke-miterlimit="10" stroke-linecap="round" stroke-linejoin="round"/>
<path d="M351.897 210.635L341.025 209.727C341.228 207.272 341.124 204.868 340.708 202.585C338.012 187.757 323.756 177.888 308.93 180.583C294.1 183.279 284.231 197.535 286.927 212.363C287.34 214.634 288.088 216.922 289.149 219.164L279.284 223.831C277.817 220.726 276.776 217.524 276.193 214.314C272.421 193.568 286.233 173.62 306.979 169.848C327.725 166.076 347.671 179.887 351.443 200.633C352.029 203.858 352.183 207.224 351.897 210.635Z" fill="#F6921E"/>
<path d="M280.921 193.564C284.313 183.692 292.955 175.8 303.093 173.315" stroke="white" stroke-miterlimit="10" stroke-linecap="round" stroke-linejoin="round"/>
<path d="M270.785 220.027C270.459 223.977 271.888 235.179 272.63 239.264C277.195 264.373 301.251 281.027 326.36 276.462C351.469 271.897 368.124 247.841 363.559 222.732C362.816 218.647 360.21 207.659 358.515 204.077L270.785 220.027Z" fill="#FFCF8F"/>
<path d="M327.324 230.162C326.412 225.147 321.607 221.821 316.592 222.733C311.578 223.645 308.252 228.449 309.164 233.464C309.903 237.528 313.209 240.439 317.102 240.928L317.222 260.779L329.396 258.566L322.521 239.943C325.993 238.115 328.063 234.227 327.324 230.162Z" fill="#060305"/>
<path d="M307.182 231.987C306.985 229.558 307.666 227.068 309.07 225.077C310.474 223.086 312.591 221.608 314.945 220.978" stroke="#060305" stroke-miterlimit="10" stroke-linecap="round" stroke-linejoin="round"/>
<path d="M341.262 266.901C352.801 259.223 360.241 245.721 360.568 231.865" stroke="#060305" stroke-miterlimit="10" stroke-linecap="round" stroke-linejoin="round"/>
<path d="M260.034 131.405C260.612 131.543 261.19 131.681 261.767 131.819" stroke="#060305" stroke-miterlimit="10" stroke-linecap="round" stroke-linejoin="round"/>
<path d="M271.39 126.883C267.267 126.838 263.192 129.069 261.008 132.566C258.824 136.063 258.608 140.704 260.458 144.389L280.125 139.515C280.652 137.276 281.118 135.031 281.645 132.791C279.539 129.247 275.513 126.928 271.39 126.883Z" fill="#060305"/>
<path d="M282.63 155.22C281.06 155.223 279.424 155.341 277.854 155.344C277.845 154.108 277.905 152.772 277.896 151.536C280.008 151.028 281.883 149.607 282.943 147.712C284.003 145.816 284.398 143.551 283.64 141.515C282.671 138.91 281.789 136.102 280.82 133.498C279.467 134.956 277.511 135.812 275.541 135.538C273.13 137.865 269.088 138.505 266.092 137.005C266.006 138.542 266.149 139.736 266.063 141.273C264.323 140.482 262.112 140.88 260.756 142.229C259.401 143.577 258.99 145.785 259.771 147.53C260.552 149.275 262.472 150.44 264.38 150.328C264.107 152.097 263.626 153.888 263.353 155.657C262.142 156.135 260.685 156.65 259.474 157.128C262.04 161.027 266.758 163.398 271.415 163.093C276.076 162.787 280.593 159.42 282.63 155.22Z" fill="#FFDDDD"/>
<path d="M272.411 143.104C272.963 143.104 273.411 142.656 273.411 142.104C273.411 141.552 272.963 141.104 272.411 141.104C271.858 141.104 271.411 141.552 271.411 142.104C271.411 142.656 271.858 143.104 272.411 143.104Z" fill="#060305"/>
<path d="M280.658 140.347C281.21 140.347 281.658 139.899 281.658 139.347C281.658 138.795 281.21 138.347 280.658 138.347C280.106 138.347 279.658 138.795 279.658 139.347C279.658 139.899 280.106 140.347 280.658 140.347Z" fill="#060305"/>
<path d="M277.253 139.882C277.708 140.902 278.163 141.922 278.618 142.941C278.262 142.985 277.743 143.112 277.387 143.156" stroke="#060305" stroke-miterlimit="10" stroke-linecap="round" stroke-linejoin="round"/>
<path d="M275.903 144.847C276.015 145.245 276.353 145.572 276.755 145.669C277.157 145.767 277.607 145.631 277.889 145.329" stroke="#060305" stroke-miterlimit="10" stroke-linecap="round" stroke-linejoin="round"/>
<path d="M270.273 139.334C270.547 138.686 271.081 138.154 271.729 137.882C272.377 137.61 273.132 137.602 273.785 137.861" stroke="#060305" stroke-miterlimit="10" stroke-linecap="round" stroke-linejoin="round"/>
<path d="M278.653 136.335C279.21 136.179 279.766 136.023 280.323 135.867" stroke="#060305" stroke-miterlimit="10" stroke-linecap="round" stroke-linejoin="round"/>
<path d="M262.626 144.316C263.471 144.341 264.317 144.367 265.162 144.392" stroke="#060305" stroke-miterlimit="10" stroke-linecap="round" stroke-linejoin="round"/>
<path d="M271.035 151.595C273.511 152.305 276.187 152.302 278.661 151.586" stroke="#060305" stroke-miterlimit="10" stroke-linecap="round" stroke-linejoin="round"/>
<path d="M264.151 150.41C264.752 150.186 265.353 149.963 265.953 149.739" stroke="#060305" stroke-miterlimit="10" stroke-linecap="round" stroke-linejoin="round"/>
<path d="M365.118 175.118C359.806 171.962 354.705 167.909 348.563 167.233C339.6 166.247 330.58 165.781 321.563 165.84C321.137 166.21 320.989 166.734 321.226 167.245C320.35 167.261 319.392 167.408 318.516 167.424C318.222 168.229 318.477 169.078 319.098 169.669C319.719 170.26 320.538 170.586 321.335 170.899C324.646 172.199 327.956 173.499 331.267 174.798C328.829 175.21 326.391 175.27 323.953 175.682C323.77 176.299 324.247 176.892 324.764 177.275C325.281 177.658 325.928 177.813 326.555 177.959C331.746 179.17 336.937 180.382 342.128 181.593C344.615 184.258 347.055 186.839 349.543 189.504C352.155 192.302 355.633 194.49 359.425 193.968C363.217 193.447 366.578 190.554 367.659 186.882C368.781 183.065 368.54 177.152 365.118 175.118Z" fill="#FFDDDD"/>
<path d="M330.558 174.537C334.427 174.561 338.297 174.585 342.166 174.609" stroke="#060305" stroke-miterlimit="10" stroke-linecap="round" stroke-linejoin="round"/>
<path d="M320.981 166.891C330.042 167.925 339.104 168.959 348.165 169.994" stroke="#060305" stroke-miterlimit="10" stroke-linecap="round" stroke-linejoin="round"/>
<path d="M347.395 187.034C350.599 192.104 357.038 194.906 362.932 193.796" stroke="#060305" stroke-miterlimit="10" stroke-linecap="round" stroke-linejoin="round"/>
<path d="M284.057 252.869C280.626 252.77 278.026 252.415 274.594 252.316C263.723 241.78 252.912 231.145 242.041 220.61C244.334 213.823 246.628 207.036 248.921 200.249L216.261 189.904C213.646 197.916 210.311 206.218 208.096 214.35C205.235 224.852 206.924 240.045 221.59 250.57C237.576 262.042 253.617 269.72 270.625 277.579L272.784 272.47C283.154 269.697 293.177 264.738 303.904 264.35C305.959 264.276 307.902 262.437 307.801 260.384C299.845 257.912 292.386 253.11 284.057 252.869Z" fill="#FFDDDD"/>
<path d="M289.491 267.202C288.038 267.47 286.585 267.738 285.132 268.005" stroke="#060305" stroke-miterlimit="10" stroke-linecap="round" stroke-linejoin="round"/>
<path d="M242.182 220.376C240.726 220.666 239.268 220.957 237.812 221.247" stroke="#060305" stroke-miterlimit="10" stroke-linecap="round" stroke-linejoin="round"/>
<path d="M140.735 269.728C139.747 272.798 135.403 272.798 134.415 269.728C133.427 266.658 129.083 266.658 128.095 269.728C127.107 272.798 122.763 272.798 121.775 269.728C120.787 266.658 116.443 266.658 115.455 269.728C114.467 272.798 110.123 272.798 109.135 269.728C108.147 266.658 103.803 266.658 102.815 269.728C101.827 272.798 97.4832 272.798 96.4952 269.728C95.5072 266.658 91.1632 266.658 90.1752 269.728C89.1872 272.798 84.8432 272.798 83.8552 269.728C82.8672 266.658 78.5232 266.658 77.5352 269.728" stroke="#060305" stroke-miterlimit="10" stroke-linecap="round" stroke-linejoin="round"/>
<path d="M442.139 246.941C441.151 250.011 436.807 250.011 435.819 246.941C434.831 243.871 430.487 243.871 429.499 246.941C428.511 250.011 424.167 250.011 423.179 246.941C422.191 243.871 417.847 243.871 416.859 246.941C415.871 250.011 411.527 250.011 410.539 246.941C409.551 243.871 405.207 243.871 404.219 246.941C403.231 250.011 398.887 250.011 397.899 246.941C396.911 243.871 392.567 243.871 391.579 246.941C390.591 250.011 386.247 250.011 385.259 246.941C384.271 243.871 379.927 243.871 378.939 246.941" stroke="#060305" stroke-miterlimit="10" stroke-linecap="round" stroke-linejoin="round"/>
<path d="M260.641 109.849C259.653 112.919 255.309 112.919 254.321 109.849C253.333 106.779 248.989 106.779 248.001 109.849C247.013 112.919 242.669 112.919 241.681 109.849C240.693 106.779 236.349 106.779 235.361 109.849C234.373 112.919 230.029 112.919 229.041 109.849C228.053 106.779 223.709 106.779 222.721 109.849C221.733 112.919 217.389 112.919 216.401 109.849C215.413 106.779 211.069 106.779 210.081 109.849C209.093 112.919 204.749 112.919 203.761 109.849C202.773 106.779 198.429 106.779 197.441 109.849" stroke="#060305" stroke-miterlimit="10" stroke-linecap="round" stroke-linejoin="round"/>
</svg>
